<?xml version="1.0" encoding="utf-8"?>
<!-- Generator: Adobe Illustrator 24.1.0, SVG Export Plug-In . SVG Version: 6.00 Build 0)  -->
<svg version="1.1" id="Capa_1" xmlns="http://www.w3.org/2000/svg" xmlns:xlink="http://www.w3.org/1999/xlink" x="0px" y="0px"
	 viewBox="0 0 1166 513" style="enable-background:new 0 0 1166 513;" xml:space="preserve">
<style type="text/css">
	.st0{fill:#00A7B7;}
</style>
<path class="st0" d="M53.7,2H11.5C6.5,2,2,7,2,12.6v314.3c0,5.5,4.5,10.5,9.5,10.5h42.1c5,0,9.5-5,9.5-10.5V12.6
	C63.2,7,58.7,2,53.7,2z"/>
<path class="st0" d="M155,1.9c-19.2,0.1-34.8,15.7-34.7,35c0,0.1,0,0.2,0,0.2c-0.2,19.2,15.2,35,34.5,35.2c0.1,0,0.1,0,0.2,0
	c19.4,0.3,35.5-15.2,35.8-34.6c0.3-19.4-15.2-35.5-34.6-35.8C155.8,1.8,155.4,1.8,155,1.9z"/>
<path class="st0" d="M176.8,115.3h-42c-5.1,0-9.6,4.4-9.6,10.6v201c0,5.5,4.6,10.5,9.6,10.5h42c5.1,0,9.6-5,9.6-10.5v-201
	C186.4,119.7,181.9,115.3,176.8,115.3z"/>
<path class="st0" d="M1049.2,343c62.8,0,113.8-53.3,113.8-117.2c0-62.8-51.1-116.1-113.8-116.1s-113.8,53.2-113.8,116
	C935.3,289.6,986.4,343,1049.2,343z M1049.2,169.7c29.4,0,53.3,25,53.3,56.1c0,31.7-23.9,57.2-53.3,57.2c-30,0-53.3-25.5-53.3-57.2
	C995.8,194.7,1019.2,169.7,1049.2,169.7L1049.2,169.7z"/>
<path class="st0" d="M1135.2,453.2c-6.6-1.7-161-41.3-407.3-43.5V226.2c0-29.8,24.1-54,53.9-54c29.8,0,54,24.1,54,53.9
	s-24.1,54-53.9,54c0,0-0.1,0-0.1,0c-16.8,0.4-30.2,14.4-29.7,31.3c0.4,16.2,13.5,29.3,29.7,29.7c63.5,0,114.9-51.4,114.9-114.9
	c0-63.5-51.4-114.9-114.9-114.9s-114.9,51.4-114.9,114.9c0,0,0,0,0,0V410c-235.4,3.9-382.1,41.5-388.5,43.2
	c-16.9,4.4-26.9,21.1-22.3,37.4c4.6,16.2,22,25.9,38.9,21.5c1.6-0.4,162.4-41.4,411.8-41.4c248.7,0,409.3,40.8,411.8,41.4
	c2.7,0.7,5.5,1.1,8.3,1.1c13.9,0,26.7-8.9,30.6-22.5C1162,474.4,1152.1,457.6,1135.2,453.2z"/>
<path class="st0" d="M297.6,337.4c5.3,0,9.1-4.7,9.1-9.9v-99.8c0-0.5,0-0.9,0-1.4l0,0c0-0.2,0-0.4,0-0.6c0-31.1,22.1-56.1,50.4-56.1
	c27.9,0,50.4,25,50.5,56.1v101.7c0,5.2,3.9,9.9,9.2,9.9H456c5.3,0,9.2-4.7,9.2-9.9v-99.2c0-0.9,0-1.7,0-2.5c0-31.1,22.1-56,50.4-56
	c27.8,0,50.4,24.9,50.4,55.9v0.3c0,0.1,0,0.3,0,0.4l0,0v101.1c0,5.2,3.9,9.9,9.2,9.9h39c5.3,0,9.1-4.7,9.1-9.9v-99.8
	c0-0.5,0-0.9,0-1.4l0,0c0-0.2,0-0.4,0-0.6C623.3,163,575,109.7,515.6,109.7c-31.3,0-59.5,14.8-79.2,38c-19.7-23.2-47.9-38-79.2-38
	c-59.1,0-107.3,52.8-107.7,115.2l0,0v102.5c0,5.2,3.9,9.9,9.2,9.9H297.6z"/>
</svg>
