<svg xmlns="http://www.w3.org/2000/svg" viewBox="0 0 2013.43 662.85"><defs><style>.cls-1{fill:#333;}</style></defs><g id="Layer_2" data-name="Layer 2"><g id="Layer_1-2" data-name="Layer 1"><path class="cls-1" d="M112.91,449.53a89,89,0,0,1,30.82-22q17.86-7.76,39.86-7.75,22.83,0,39.42,9.05a73.65,73.65,0,0,1,27.37,26.28L311.58,406q-16-27.58-48.27-42.24t-74.12-14.65q-42.24,0-76.93,13.36T52.58,400.19a170.79,170.79,0,0,0-38.79,57.53Q0,490.9,0,530.11t18.53,69.18q18.52,30,53,46.75t80.59,16.81q40.07,0,73.26-12.71T284,606.82l-50.43-49.56q-15.94,18.11-34.68,26.51a94.43,94.43,0,0,1-39,8.4q-22.84,0-39.43-8.4A59.74,59.74,0,0,1,95,560.07q-8.83-15.3-8.83-35.56a122.23,122.23,0,0,1,6.89-41.58A98.76,98.76,0,0,1,112.91,449.53Z"/><polygon class="cls-1" points="640.82 355.15 554.63 355.15 458.25 475.15 410.7 355.15 324.94 355.15 401.51 547.14 380.1 656.82 465.42 656.82 486.69 549.77 640.82 355.15"/><path class="cls-1" d="M801.34,583.77a94.35,94.35,0,0,1-39,8.4q-22.85,0-39.43-8.4a59.68,59.68,0,0,1-25.43-23.7q-8.84-15.3-8.83-35.56a122.23,122.23,0,0,1,6.89-41.58,98.76,98.76,0,0,1,19.83-33.4,88.84,88.84,0,0,1,30.81-22q17.88-7.76,39.86-7.75,22.85,0,39.43,9.05a73.72,73.72,0,0,1,27.37,26.28L914,406q-15.94-27.58-48.26-42.24t-74.12-14.65q-42.24,0-76.93,13.36T655,400.19a170.79,170.79,0,0,0-38.79,57.53q-13.8,33.18-13.79,72.39T621,599.29q18.53,30,53,46.75t80.58,16.81q40.08,0,73.27-12.71t58.6-43.32L836,557.26Q820.09,575.37,801.34,583.77Z"/><polygon class="cls-1" points="1053.23 355.15 967.9 355.15 907.57 656.82 1136.83 656.82 1150.62 589.16 1006.68 589.16 1053.23 355.15"/><polygon class="cls-1" points="1170.44 656.82 1255.76 656.82 1316.1 355.15 1230.77 355.15 1170.44 656.82"/><polygon class="cls-1" points="1547.21 520.36 1447.1 355.15 1376.86 355.15 1316.52 656.82 1400.13 656.82 1433.1 491.61 1532.86 656.82 1603.1 656.82 1663.43 355.15 1579.83 355.15 1547.21 520.36"/><path class="cls-1" d="M1880.4,584.69c-.64.25-1.28.57-1.92.8a112.22,112.22,0,0,1-38.36,6.68q-24.57,0-41.81-8.4T1772,560.07q-9-15.3-9-35.56a118.74,118.74,0,0,1,7.11-41.58,97.86,97.86,0,0,1,20.47-33.4,91.38,91.38,0,0,1,32.1-22q18.75-7.76,42-7.75t41.37,7.32q18.1,7.33,32.32,26.29l61.63-48.7q-20.68-27.15-53.44-41.37t-78-14.22q-42.66,0-78.22,13.36t-60.76,37.71a169.46,169.46,0,0,0-39,57.53q-13.8,33.18-13.79,72.39t18.75,69.18q18.74,30,53,46.75t80.36,16.81a217.62,217.62,0,0,0,64.65-9.48,184.44,184.44,0,0,0,54.3-26.72l25-127.13h-75.42Z"/><path class="cls-1" d="M104.64,152a60.62,60.62,0,0,1,18.38-2.4,102.09,102.09,0,0,1,27,3.6A79.67,79.67,0,0,1,173.88,164l19.44-39.41q-12.52-7.72-29.83-11.85a159.33,159.33,0,0,0-37-4.13q-27.7,0-47.8,8.26t-31,23.17Q36.73,155,36.74,174.93q0,12.78,4.79,21.17a42.3,42.3,0,0,0,12.92,14,84.51,84.51,0,0,0,17.84,9.32,162.17,162.17,0,0,0,19.44,6.13q9.72,2.4,17.7,4.79a45,45,0,0,1,12.92,5.86q4.92,3.47,4.93,8.52a11.84,11.84,0,0,1-3.86,8.79,26.62,26.62,0,0,1-10.92,5.86,59.06,59.06,0,0,1-16.91,2.12A109.71,109.71,0,0,1,74,259.35a117.75,117.75,0,0,1-20.91-6.26,133.42,133.42,0,0,1-19.83-10L12.5,282.78A115.91,115.91,0,0,0,33,292.63a152.13,152.13,0,0,0,26.63,7.19,170.46,170.46,0,0,0,30.62,2.67q27.42,0,47.53-8.26t31.3-23.17q11.17-14.91,11.18-34.88,0-12.24-5.06-20.5A42.86,42.86,0,0,0,162,202.09a83.41,83.41,0,0,0-17.84-8.78q-9.74-3.47-19.31-6t-17.71-4.92a44.82,44.82,0,0,1-13-5.86c-3.28-2.31-4.92-5.23-4.92-8.79a12.92,12.92,0,0,1,4-9.18Q97.18,154.44,104.64,152Z"/><path class="cls-1" d="M323.93,253.62a58.32,58.32,0,0,1-24.1,5.19q-14.11,0-24.36-5.19A36.91,36.91,0,0,1,259.75,239a43.17,43.17,0,0,1-5.46-22,75.21,75.21,0,0,1,4.27-25.7,60.9,60.9,0,0,1,12.24-20.64,55.14,55.14,0,0,1,19-13.58,61.23,61.23,0,0,1,24.64-4.8q14.1,0,24.36,5.6a45.59,45.59,0,0,1,16.91,16.24l37.81-30.36q-9.84-17-29.82-26.09t-45.8-9.06q-26.1,0-47.53,8.26a107.47,107.47,0,0,0-36.88,23.3,105.42,105.42,0,0,0-24,35.55A115.44,115.44,0,0,0,201,220.47q0,24.22,11.45,42.74t32.75,28.89q21.3,10.38,49.8,10.39,24.76,0,45.27-7.86t36.21-26.77l-31.15-30.62Q335.5,248.43,323.93,253.62Z"/><polygon class="cls-1" points="537.2 182.38 465.57 182.38 479.58 112.35 426.85 112.35 389.57 298.76 442.3 298.76 456.84 226.06 528.47 226.06 513.93 298.76 566.65 298.76 603.93 112.35 551.21 112.35 537.2 182.38"/><polygon class="cls-1" points="1130.37 256.95 1159.13 112.35 1106.4 112.35 1069.12 298.76 1210.79 298.76 1219.31 256.95 1130.37 256.95"/><path class="cls-1" d="M965.07,112.15a104.16,104.16,0,0,0-32.74,5.47,95.88,95.88,0,0,0-30.43,16.75L751,254.47A54.3,54.3,0,0,1,734.42,263a59.4,59.4,0,0,1-17.71,2.72q-23.64,0-37.3-16.54t-10.94-40.53q2.78-23.29,21.14-40.24t42.52-17.05a54.46,54.46,0,0,1,17.7,2.88,32.75,32.75,0,0,1,14.2,9.46l27.28,30.09,32.54-26.4-30.22-33a62,62,0,0,0-24.87-16.75,89.54,89.54,0,0,0-31.34-5.47q-40.86,0-72.5,28.88-31.23,28.5-35.39,67.64-4.21,38.91,19.68,66.14c15.71,18,36.55,26.95,62.65,26.95A106.08,106.08,0,0,0,742.8,297a88,88,0,0,0,28.49-14.71l150.4-118.18a60.67,60.67,0,0,1,17.13-9.45,54.86,54.86,0,0,1,18.52-3.3q24,0,37.08,17.05t8,40.24q-5.07,23.9-24.59,40.53t-43,16.54a52.81,52.81,0,0,1-17-2.72,29.11,29.11,0,0,1-13.08-8.55l-25.06-29.08-32,25.57,27.57,31A52.38,52.38,0,0,0,898.37,297a91.19,91.19,0,0,0,29.37,4.74q39.13,0,71.79-26.95,33.08-27.3,41.83-66.14c5.82-26,1.56-48.64-12.95-67.64Q1006.39,112.21,965.07,112.15Z"/><path class="cls-1" d="M1310,76c12.23,4,24.23,9.68,36.77,11.4,12.12,1.65,24.81-.81,37.25-1.47l1.16,4.08c-2.09,1.54-4,3.63-6.3,4.53-12.58,4.88-25.13,9.92-38,13.84-3.21,1-9-.75-11.25-3.29-7.47-8.28-13.88-17.5-20.7-26.36Z"/><path class="cls-1" d="M1526.29,12.35c8.5,1,15.59.34,21.2,2.9,8.67,4,14.61,1.59,21.48-3.54,6.58-4.92,14.19-8.49,21.85-11.71C1574.68,41.88,1557.62,45.43,1526.29,12.35Z"/><path class="cls-1" d="M1461,118.53l19.19-20.33,3.06.81c-2.36,9.54-3.37,19.72-7.46,28.47-4.35,9.31-18.56,9.44-24.5,1-4.88-7-8.8-14.66-12.65-22.28-.89-1.76.27-4.56.48-6.88,2.65.47,6.29,0,7.76,1.58C1451.67,106,1455.73,111.84,1461,118.53Z"/><polygon class="cls-1" points="1512.22 278.31 1390.11 156.19 1390.07 156.23 1390.04 156.19 1267.92 278.31 1299.05 309.45 1390.07 218.43 1481.09 309.45 1512.22 278.31"/><polygon class="cls-1" points="1814.49 273.2 1618.8 77.5 1618.77 77.53 1618.75 77.5 1473.99 222.27 1505.12 253.4 1618.77 139.75 1783.36 304.34 1814.49 273.2"/><polygon class="cls-1" points="2013.43 269.09 1838.15 93.82 1838.14 93.83 1838.12 93.82 1744.79 187.15 1775.92 218.28 1838.14 156.07 1982.3 300.23 2013.43 269.09"/></g></g></svg>