<svg xmlns="http://www.w3.org/2000/svg" viewBox="0 0 2010.56 834.54"><defs><style>.cls-1{fill:#0c4e82;}.cls-2{fill:#bb1a1f;}.cls-3{fill:#c4bfc5;}</style></defs><g id="Layer_2" data-name="Layer 2"><g id="Layer_1-2" data-name="Layer 1"><path class="cls-1" d="M113.4,205c33,10.7,65.34,26.11,99.17,30.73,32.69,4.47,66.91-2.18,100.45-3.95q1.58,5.5,3.14,11c-5.63,4.16-10.7,9.77-17,12.22-33.92,13.16-67.78,26.74-102.53,37.32-8.67,2.64-24.16-2-30.33-8.88-20.15-22.32-37.44-47.2-55.83-71.09Q111.94,208.65,113.4,205Z"/><path class="cls-2" d="M696.79,33.31c22.92,2.75,42.05.92,57.17,7.82,23.38,10.67,39.42,4.29,57.92-9.55C829.64,18.3,850.15,8.68,870.82,0,827.3,112.94,781.29,122.53,696.79,33.31Z"/><path class="cls-3" d="M520.57,319.65l51.76-54.82,8.26,2.18c-6.38,25.75-9.09,53.19-20.12,76.78-11.73,25.1-50.05,25.48-66.07,2.56-13.16-18.81-23.75-39.52-34.12-60.06-2.4-4.77.72-12.3,1.3-18.56,7.14,1.26,16.95,0,20.93,4.25C495.56,285.81,506.5,301.63,520.57,319.65Z"/><polygon class="cls-1" points="658.86 750.58 329.52 421.24 329.43 421.33 329.34 421.24 0 750.58 83.96 834.54 329.43 589.08 574.89 834.54 658.86 750.58"/><polygon class="cls-3" points="1474.05 736.79 946.27 209.02 946.21 209.09 946.14 209.02 555.74 599.42 639.7 683.39 946.21 376.88 1390.09 820.76 1474.05 736.79"/><polygon class="cls-2" points="2010.56 725.72 1537.86 253.01 1537.81 253.06 1537.77 253.01 1286.05 504.72 1370.02 588.69 1537.81 420.89 1926.6 809.68 2010.56 725.72"/></g></g></svg>